<svg xmlns="http://www.w3.org/2000/svg" width="163.109" height="78.825" viewBox="0 0 163.109 78.825">
  <g id="ico_faq" transform="translate(-85.014 -557.021)">
    <g id="그룹_16" data-name="그룹 16">
      <path id="패스_39" data-name="패스 39" d="M229.152,582.039a7.669,7.669,0,0,0-7.669-7.668H154.761a7.668,7.668,0,0,0-7.668,7.668v49.467h82.059Z" fill="#27a294"/>
    </g>
    <g id="그룹_17" data-name="그룹 17">
      <path id="패스_40" data-name="패스 40" d="M193.966,625.98a6.574,6.574,0,0,1-12.084,0H141.109v4.382a3.984,3.984,0,0,0,3.985,3.984h86.058a3.984,3.984,0,0,0,3.984-3.984V625.98Z" fill="#e02210"/>
    </g>
    <g id="그룹_18" data-name="그룹 18">
      <path id="패스_41" data-name="패스 41" d="M178.018,607.285v2.843H167.576V597.122h10.2v2.843h-6.558v2.192H177v2.75h-5.778v2.378Z" fill="#fff"/>
      <path id="패스_42" data-name="패스 42" d="M184.688,600.039h-4v-2.917h11.65v2.917h-3.976v10.089h-3.679Z" fill="#fff"/>
      <path id="패스_43" data-name="패스 43" d="M207.95,597.122v13.006h-3.028l-5.741-6.931v6.931h-3.6V597.122H198.6l5.742,6.931v-6.931Z" fill="#fff"/>
    </g>
    <path id="패스_44" data-name="패스 44" d="M239.644,558.521H199.381a3.835,3.835,0,0,0-3.834,3.835v22.623a3.835,3.835,0,0,0,3.834,3.834h8.054V598.4l15.612-9.587h16.6a3.833,3.833,0,0,0,3.834-3.834V562.356A3.833,3.833,0,0,0,239.644,558.521Z" fill="#fff" stroke="#0f1010" stroke-width="3"/>
    <g id="그룹_19" data-name="그룹 19">
      <path id="패스_45" data-name="패스 45" d="M208.9,572.052v1.723h3.457v1.712H208.9v2.686h-2.216V570.34h6.144v1.712Z" fill="#0f1010"/>
      <path id="패스_46" data-name="패스 46" d="M219.937,576.651h-3.312l-.616,1.522H213.75l3.457-7.833h2.182l3.469,7.833h-2.306Zm-.649-1.633-1.007-2.507-1.007,2.507Z" fill="#0f1010"/>
      <path id="패스_47" data-name="패스 47" d="M233.2,579.079a2.579,2.579,0,0,1-.957.734,3.019,3.019,0,0,1-1.237.25,3.845,3.845,0,0,1-1.174-.167,3.72,3.72,0,0,1-1.058-.554,9.013,9.013,0,0,1-1.191-1.079,4.339,4.339,0,0,1-1.814-.728,3.914,3.914,0,0,1-1.236-1.41,4,4,0,0,1,1.678-5.416,5.01,5.01,0,0,1,4.465,0,4,4,0,0,1-.543,7.33,1.463,1.463,0,0,0,.443.347,1.132,1.132,0,0,0,.475.1,1.606,1.606,0,0,0,1.186-.548Zm-6.591-3.653a2,2,0,0,0,.761.789,2.207,2.207,0,0,0,2.148,0,2.021,2.021,0,0,0,.761-.789,2.591,2.591,0,0,0,0-2.339,2.021,2.021,0,0,0-.761-.789,2.207,2.207,0,0,0-2.148,0,2,2,0,0,0-.761.789,2.582,2.582,0,0,0,0,2.339Z" fill="#0f1010"/>
    </g>
    <line id="선_60" data-name="선 60" x2="149.399" transform="translate(98.724 634.346)" fill="none" stroke="#070304" stroke-linejoin="round" stroke-width="3"/>
    <line id="선_61" data-name="선 61" x2="7.167" transform="translate(85.014 634.346)" fill="none" stroke="#070304" stroke-linejoin="round" stroke-width="3"/>
  </g>
</svg>
