<svg xmlns="http://www.w3.org/2000/svg" width="54.618" height="36.75" viewBox="0 0 54.618 36.75">
  <g id="ico_main05" transform="translate(-569.879 -356.967)">
    <path id="패스_1" data-name="패스 1" d="M616.9,392.967H576.964V374.021h3.223l4.777-4.819h2.2l3.054-3.082h2.611l6.889,6.951h2.031l4.969-5.014H608.4l4.188,4.226h2l2.883-2.909" fill="#e23317"/>
    <path id="패스_2" data-name="패스 2" d="M617.1,393.018h-40.03V385.1l6.434.026,3.867-3.693h4.846l4.2,4.01h6.892l7.932-7.575h4.486l1.691-1.614-.216,16.7" fill="#1695a0"/>
    <path id="패스_37" data-name="패스 37" d="M579.99,373.324l4.777-4.819h2.2l3.054-3.082h2.611l6.889,6.951h2.031l4.969-5.014H608.2l4.188,4.226h2l5.575-5.626" fill="none" stroke="#070304" stroke-linejoin="round" stroke-width="1.5"/>
    <path id="패스_38" data-name="패스 38" d="M579.879,385.09l3.4.026,3.848-3.675h4.821l4.179,3.989h6.857l7.893-7.536h4.464l5.161-4.928" fill="none" stroke="#070304" stroke-linejoin="round" stroke-width="1.5"/>
    <line id="선_51" data-name="선 51" x2="54.618" transform="translate(569.879 392.967)" fill="none" stroke="#070304" stroke-linejoin="round" stroke-width="1.5"/>
    <line id="선_52" data-name="선 52" y1="36" transform="translate(576.879 356.967)" fill="none" stroke="#070304" stroke-linejoin="round" stroke-width="1.5"/>
    <line id="선_53" data-name="선 53" x2="4" transform="translate(569.879 388.967)" fill="none" stroke="#070304" stroke-linejoin="round" stroke-width="1.5"/>
    <line id="선_54" data-name="선 54" x2="4" transform="translate(569.879 383.967)" fill="none" stroke="#070304" stroke-linejoin="round" stroke-width="1.5"/>
    <line id="선_55" data-name="선 55" x2="4" transform="translate(569.879 378.967)" fill="none" stroke="#070304" stroke-linejoin="round" stroke-width="1.5"/>
    <line id="선_56" data-name="선 56" x2="4" transform="translate(569.879 373.967)" fill="none" stroke="#070304" stroke-linejoin="round" stroke-width="1.5"/>
    <line id="선_57" data-name="선 57" x2="4" transform="translate(569.879 368.967)" fill="none" stroke="#070304" stroke-linejoin="round" stroke-width="1.5"/>
    <line id="선_58" data-name="선 58" x2="4" transform="translate(569.879 363.967)" fill="none" stroke="#070304" stroke-linejoin="round" stroke-width="1.5"/>
    <line id="선_59" data-name="선 59" x2="4" transform="translate(569.879 358.967)" fill="none" stroke="#070304" stroke-linejoin="round" stroke-width="1.5"/>
    <path id="패스_48" data-name="패스 48" d="M621.529,392.967" fill="#1695a0"/>
    <path id="패스_49" data-name="패스 49" d="M620.374,392.223" fill="#e23317"/>
    <path id="패스_50" data-name="패스 50" d="M620.142,392.976" fill="#e23317"/>
    <path id="패스_51" data-name="패스 51" d="M619.187,393.018" fill="#e23317"/>
    <path id="패스_52" data-name="패스 52" d="M619.187,374.353" fill="#1695a0"/>
    <path id="패스_53" data-name="패스 53" d="M619.187,374.353" fill="#1695a0"/>
    <path id="패스_54" data-name="패스 54" d="M619.187,374.353" fill="#1695a0"/>
    <path id="패스_55" data-name="패스 55" d="M619.187,393.018" fill="#1695a0"/>
    <path id="패스_56" data-name="패스 56" d="M619.187,393.018" fill="#1695a0"/>
    <path id="패스_57" data-name="패스 57" d="M619.187,393.018" fill="#1695a0"/>
    <path id="패스_58" data-name="패스 58" d="M619.187,393.018" fill="#1695a0"/>
    <path id="패스_59" data-name="패스 59" d="M617.417,392.957" fill="#e23317"/>
    <path id="패스_60" data-name="패스 60" d="M617.417,392.957" fill="#1695a0"/>
    <path id="패스_61" data-name="패스 61" d="M617.417,392.957" fill="#1695a0"/>
    <path id="패스_62" data-name="패스 62" d="M617.417,392.957" fill="#1695a0"/>
    <path id="패스_63" data-name="패스 63" d="M617.2,392.957" fill="#1695a0"/>
  </g>
</svg>
