<svg xmlns="http://www.w3.org/2000/svg" width="163.109" height="77.325" viewBox="0 0 163.109 77.325">
  <defs>
    <style>
      .cls-1 {
        fill: #5dc4bc;
      }

      .cls-2 {
        fill: #e94a21;
      }

      .cls-3 {
        fill: #fff;
      }

      .cls-4 {
        fill: #293645;
      }

      .cls-5 {
        fill: none;
        stroke: #3a4658;
        stroke-linejoin: round;
        stroke-width: 3px;
      }
    </style>
  </defs>
  <g id="ico_faq2" transform="translate(-85.014 -558.521)">
    <path id="패스_9" data-name="패스 9" class="cls-1" d="M229.151,582.039a7.669,7.669,0,0,0-7.669-7.669H154.761a7.67,7.67,0,0,0-7.669,7.669v49.467h82.059Z"/>
    <path id="패스_10" data-name="패스 10" class="cls-2" d="M193.966,625.98a6.575,6.575,0,0,1-12.084,0H141.109v4.381a3.983,3.983,0,0,0,3.985,3.984h86.058a3.983,3.983,0,0,0,3.984-3.984V625.98Z"/>
    <path id="패스_11" data-name="패스 11" class="cls-3" d="M178.018,607.285v2.843H167.577V597.122h10.2v2.843h-6.559v2.192H177v2.75h-5.779v2.378Z"/>
    <path id="패스_12" data-name="패스 12" class="cls-3" d="M184.688,600.039h-4v-2.917h11.649v2.917h-3.975v10.089h-3.679Z"/>
    <path id="패스_13" data-name="패스 13" class="cls-3" d="M207.95,597.122v13.006h-3.028L199.18,603.2v6.932h-3.6V597.122H198.6l5.742,6.931v-6.931Z"/>
    <path id="패스_14" data-name="패스 14" class="cls-3" d="M239.644,558.521H199.382a3.835,3.835,0,0,0-3.835,3.834v22.624a3.835,3.835,0,0,0,3.835,3.834h8.053V598.4l15.611-9.587h16.6a3.832,3.832,0,0,0,3.833-3.834V562.355a3.832,3.832,0,0,0-3.833-3.834"/>
    <path id="패스_15" data-name="패스 15" class="cls-4" d="M239.644,558.521H199.382a3.835,3.835,0,0,0-3.835,3.834v22.624a3.835,3.835,0,0,0,3.835,3.834h8.053V598.4l15.611-9.587h16.6a3.832,3.832,0,0,0,3.833-3.834V562.355A3.832,3.832,0,0,0,239.644,558.521Z"/>
    <path id="패스_16" data-name="패스 16" class="cls-3" d="M208.9,572.052v1.724h3.457v1.712H208.9v2.685h-2.216v-7.833h6.144v1.713Z"/>
    <path id="패스_17" data-name="패스 17" class="cls-3" d="M219.936,576.651h-3.312l-.614,1.521h-2.261l3.457-7.833h2.184l3.467,7.833h-2.3Zm-.648-1.633-1.007-2.508-1.008,2.508Z"/>
    <path id="패스_18" data-name="패스 18" class="cls-3" d="M233.2,579.078a2.572,2.572,0,0,1-.957.735,3.019,3.019,0,0,1-1.237.25,3.845,3.845,0,0,1-1.174-.167,3.758,3.758,0,0,1-1.058-.554,9.087,9.087,0,0,1-1.191-1.079,4.341,4.341,0,0,1-1.814-.729,3.906,3.906,0,0,1-1.236-1.41,4,4,0,0,1,1.679-5.416,5.016,5.016,0,0,1,4.464,0,3.922,3.922,0,0,1,2.12,3.549,3.925,3.925,0,0,1-2.663,3.781,1.468,1.468,0,0,0,.443.348,1.151,1.151,0,0,0,.475.1,1.606,1.606,0,0,0,1.186-.548Zm-6.591-3.652a2,2,0,0,0,.761.788,2.207,2.207,0,0,0,2.148,0,2.012,2.012,0,0,0,.761-.788,2.593,2.593,0,0,0,0-2.34,2.019,2.019,0,0,0-.761-.788,2.207,2.207,0,0,0-2.148,0,2,2,0,0,0-.761.788,2.585,2.585,0,0,0,0,2.34"/>
    <line id="선_5" data-name="선 5" class="cls-5" x2="149.399" transform="translate(98.724 634.346)"/>
    <line id="선_6" data-name="선 6" class="cls-5" x2="7.167" transform="translate(85.014 634.346)"/>
  </g>
</svg>
