<svg xmlns="http://www.w3.org/2000/svg" width="50.161" height="41.686" viewBox="0 0 50.161 41.686">
  <g id="ico_main01" transform="translate(-74.243 -354.168)">
    <rect id="사각형_6" data-name="사각형 6" transform="translate(98.636 372.444)" fill="#fff" stroke="#0a090a" stroke-linecap="round" stroke-linejoin="round" stroke-width="2.5"/>
    <rect id="사각형_7" data-name="사각형 7" transform="translate(98.636 372.444)" fill="#fff" stroke="#0a090a" stroke-linecap="round" stroke-linejoin="round" stroke-width="2.5"/>
    <rect id="사각형_8" data-name="사각형 8" transform="translate(98.636 372.444)" fill="#fff" stroke="#0a090a" stroke-linecap="round" stroke-linejoin="round" stroke-width="2.5"/>
    <path id="패스_9" data-name="패스 9" d="M98.636,372.444Z" fill="#fff" stroke="#0a090a" stroke-linecap="round" stroke-linejoin="round" stroke-width="2.5"/>
    <path id="패스_10" data-name="패스 10" d="M98.636,372.444h0Z" fill="#fff" stroke="#0a090a" stroke-linecap="round" stroke-linejoin="round" stroke-width="2.5"/>
    <rect id="사각형_9" data-name="사각형 9" transform="translate(98.636 372.444)" fill="#fff" stroke="#0a090a" stroke-linecap="round" stroke-linejoin="round" stroke-width="2.5"/>
    <path id="패스_11" data-name="패스 11" d="M98.636,372.444h0Z" fill="#fff" stroke="#0a090a" stroke-linecap="round" stroke-linejoin="round" stroke-width="2.5"/>
    <rect id="사각형_10" data-name="사각형 10" transform="translate(98.636 372.444)" fill="#fff" stroke="#0a090a" stroke-linecap="round" stroke-linejoin="round" stroke-width="2.5"/>
    <rect id="사각형_11" data-name="사각형 11" transform="translate(98.636 372.444)" fill="#fff" stroke="#0a090a" stroke-linecap="round" stroke-linejoin="round" stroke-width="2.5"/>
    <path id="패스_12" data-name="패스 12" d="M98.636,372.444Z" fill="#fff" stroke="#0a090a" stroke-linecap="round" stroke-linejoin="round" stroke-width="2.5"/>
    <path id="패스_13" data-name="패스 13" d="M98.636,372.444h0l-15.177,8.763a17.526,17.526,0,0,0,30.354,0Z" fill="#fff" stroke="#070304" stroke-linejoin="round" stroke-width="1.5"/>
    <path id="패스_14" data-name="패스 14" d="M113.813,363.682l-15.177,8.762h0l15.177,8.763a17.437,17.437,0,0,0,2.35-8.763h0A17.446,17.446,0,0,0,113.813,363.682Z" fill="#fff" stroke="#070304" stroke-linejoin="round" stroke-width="1.5"/>
    <path id="패스_15" data-name="패스 15" d="M113.813,363.682a17.522,17.522,0,0,0-23.94-6.415l8.763,15.177h0Z" fill="#e23317" stroke="#0f1010" stroke-linecap="round" stroke-linejoin="round" stroke-width="1.5"/>
    <path id="패스_16" data-name="패스 16" d="M89.873,357.267a17.535,17.535,0,0,0-8.764,15.177h0a17.437,17.437,0,0,0,2.35,8.763l15.177-8.763h0Z" fill="#fff" stroke="#070304" stroke-linejoin="round" stroke-width="1.5"/>
    <g id="그룹_5" data-name="그룹 5">
      <rect id="사각형_12" data-name="사각형 12" width="3.767" height="12.759" transform="translate(106 383.095)" fill="#1695a0"/>
      <rect id="사각형_13" data-name="사각형 13" width="3.768" height="17.811" transform="translate(99.835 378.043)" fill="#1695a0"/>
      <rect id="사각형_14" data-name="사각형 14" width="3.767" height="15.156" transform="translate(93.67 380.697)" fill="#1695a0"/>
      <rect id="사각형_15" data-name="사각형 15" width="3.767" height="9.676" transform="translate(87.505 386.177)" fill="#1695a0"/>
    </g>
    <g id="그룹_6" data-name="그룹 6">
      <line id="선_11" data-name="선 11" x2="12.974" transform="translate(109.005 373.903)" fill="#fff" stroke="#070304" stroke-linejoin="round" stroke-width="1.5"/>
      <path id="패스_17" data-name="패스 17" d="M121.666,375.891a1.988,1.988,0,1,1,1.988-1.988A1.988,1.988,0,0,1,121.666,375.891Z" fill="#fff" stroke="#070304" stroke-linejoin="round" stroke-width="1.5"/>
    </g>
    <g id="그룹_7" data-name="그룹 7">
      <line id="선_12" data-name="선 12" x1="12.974" transform="translate(76.667 367.644)" fill="#fff" stroke="#070304" stroke-linejoin="round" stroke-width="1.5"/>
      <path id="패스_18" data-name="패스 18" d="M76.98,369.632a1.988,1.988,0,1,0-1.987-1.988A1.987,1.987,0,0,0,76.98,369.632Z" fill="#fff" stroke="#070304" stroke-linejoin="round" stroke-width="1.5"/>
    </g>
  </g>
</svg>
